<?xml version="1.0" encoding="iso-8859-1"?>
<!-- Generator: Adobe Illustrator 19.0.0, SVG Export Plug-In . SVG Version: 6.00 Build 0)  -->
<svg version="1.1" id="Layer_1" xmlns="http://www.w3.org/2000/svg" xmlns:xlink="http://www.w3.org/1999/xlink" x="0px" y="0px"
	 viewBox="0 0 512 512" style="enable-background:new 0 0 512 512;" xml:space="preserve">
<circle style="fill:#FF0435;" cx="243.607" cy="252.865" r="62.056"/>
<path style="fill:#E60020;" d="M243.606,280.856c-28.363,0-52.264-19.036-59.668-45.024c-1.542,5.414-2.385,11.122-2.385,17.03
	c0,34.272,27.782,62.053,62.053,62.053s62.053-27.783,62.053-62.053c0-5.908-0.843-11.616-2.385-17.03
	C295.87,261.82,271.969,280.856,243.606,280.856z"/>
<path style="fill:#ADACB2;" d="M396.941,252.842c17.864-21.215,32.335-42.428,42.451-62.599c1.94-3.869,0.377-8.578-3.492-10.518
	c-3.868-1.939-8.578-0.377-10.518,3.492c-9.304,18.551-22.52,38.078-38.843,57.691c-11.995-13.298-25.255-26.491-39.547-39.353
	c-2.932-35.139-8.868-68.178-17.495-97.17c4.188-1.364,8.331-2.621,12.418-3.753c44.061-12.206,77.079-9.005,90.586,8.781
	c7.661,10.088,9.24,24.549,4.694,42.979c-1.037,4.202,1.53,8.449,5.731,9.486c4.203,1.037,8.449-1.529,9.486-5.731
	c5.656-22.926,3.088-42.364-7.428-56.212c-17.849-23.503-55.939-28.619-107.253-14.407c-4.292,1.189-8.643,2.509-13.038,3.94
	c-1.518-4.367-3.098-8.629-4.747-12.767C300.229,27.239,273.118,0,243.606,0s-56.623,27.239-76.338,76.702
	c-1.651,4.141-3.232,8.407-4.751,12.777c-17.149-5.602-33.432-9.333-48.348-10.942c-4.302-0.465-8.168,2.647-8.632,6.951
	c-0.464,4.303,2.648,8.168,6.951,8.632c13.926,1.503,29.159,4.996,45.238,10.238c-8.632,28.999-14.571,62.049-17.504,97.2
	c-14.29,12.86-27.549,26.05-39.543,39.347c-11.682-14.052-21.816-28.107-30.106-41.872c-23.585-39.168-29.367-71.834-15.861-89.619
	c5.131-6.757,13.017-11.457,23.44-13.968c4.208-1.015,6.797-5.246,5.784-9.454c-1.014-4.207-5.246-6.795-9.454-5.784
	c-14.027,3.38-24.878,10.017-32.251,19.727c-17.849,23.504-12.552,61.569,14.915,107.183c9.068,15.057,20.217,30.423,33.109,45.746
	c-12.893,15.322-24.042,30.688-33.109,45.746c-27.467,45.614-32.764,83.679-14.915,107.182
	c11.227,14.784,30.458,22.293,55.957,22.292c15.038,0,32.259-2.613,51.295-7.886c4.292-1.189,8.643-2.509,13.039-3.94
	c1.518,4.367,3.098,8.629,4.747,12.767c19.714,49.461,46.825,76.702,76.338,76.702s56.623-27.239,76.338-76.702
	c1.649-4.138,3.23-8.4,4.747-12.767c4.396,1.432,8.746,2.751,13.038,3.94c19.039,5.274,36.255,7.886,51.295,7.886
	c25.494,0,44.731-7.51,55.957-22.292c17.849-23.504,12.552-61.569-14.915-107.182C420.996,283.543,409.84,268.171,396.941,252.842z
	 M376.21,252.857c-8.583,9.59-17.86,19.158-27.759,28.599c0.429-9.428,0.653-18.969,0.653-28.594c0-9.629-0.225-19.173-0.654-28.604
	C358.34,233.689,367.621,243.252,376.21,252.857z M297.932,324.398c-17.903,13.595-36.152,25.929-54.326,36.788
	c-18.174-10.859-36.423-23.193-54.325-36.788c-11.832-8.985-23.169-18.267-33.93-27.739c-1.035-14.298-1.57-28.941-1.57-43.798
	c0-14.857,0.535-29.499,1.57-43.798c10.761-9.472,22.098-18.754,33.93-27.739c17.896-13.591,36.14-25.922,54.308-36.777
	c18.159,10.846,36.434,23.176,54.344,36.777c11.832,8.985,23.169,18.267,33.93,27.739c1.035,14.298,1.57,28.939,1.57,43.797
	c0,14.852-0.535,29.489-1.569,43.782C321.1,306.123,309.763,315.414,297.932,324.398z M329.796,319.059
	c-3.123,27.72-8.21,53.775-15.094,77.07c-17.996-6.819-36.691-15.587-55.599-26.033c16.204-10.018,32.4-21.133,48.308-33.214
	C315.076,331.059,322.544,325.108,329.796,319.059z M228.108,370.094c-18.907,10.446-37.603,19.214-55.598,26.033
	c-6.883-23.294-11.969-49.346-15.093-77.066c7.252,6.046,14.716,11.996,22.384,17.82
	C195.708,348.961,211.904,360.076,228.108,370.094z M329.796,186.664c-7.252-6.046-14.716-11.997-22.385-17.821
	c-15.908-12.081-32.127-23.186-48.341-33.195c18.92-10.454,37.626-19.228,55.632-26.051
	C321.585,132.891,326.672,158.945,329.796,186.664z M181.828,82.504c16.928-42.471,39.446-66.831,61.779-66.831
	s44.849,24.36,61.779,66.831c1.57,3.939,3.075,7.999,4.521,12.158c-21.448,8.08-43.812,18.798-66.334,31.743
	c-22.592-12.967-44.967-23.666-66.274-31.714C178.746,90.523,180.254,86.453,181.828,82.504z M172.515,109.582
	c17.873,6.791,36.582,15.566,55.573,26.061c-16.197,10.015-32.386,21.126-48.287,33.201c-7.669,5.823-15.133,11.774-22.384,17.82
	C160.541,158.938,165.629,132.88,172.515,109.582z M138.76,224.258c-0.429,9.431-0.654,18.975-0.654,28.604
	s0.225,19.173,0.654,28.604c-9.891-9.432-19.173-18.998-27.764-28.604C119.587,243.255,128.87,233.69,138.76,224.258z
	 M145.298,405.092c-44.064,12.203-77.08,9.005-90.586-8.781c-13.506-17.785-7.725-50.45,15.861-89.618
	c8.289-13.766,18.424-27.819,30.106-41.872c11.994,13.296,25.253,26.488,39.543,39.348c2.932,35.138,8.868,68.178,17.495,97.17
	C153.529,402.703,149.385,403.96,145.298,405.092z M305.384,423.22c-16.928,42.472-39.446,66.831-61.779,66.831
	s-44.849-24.36-61.779-66.831c-1.57-3.939-3.075-8-4.521-12.159c21.437-8.076,43.789-18.785,66.299-31.722
	c22.511,12.936,44.863,23.646,66.3,31.722C308.459,415.22,306.954,419.281,305.384,423.22z M432.5,396.311
	c-13.506,17.786-46.523,20.986-90.585,8.781c-4.087-1.132-8.23-2.39-12.418-3.753c8.629-28.999,14.566-62.046,17.497-97.193
	c14.288-12.868,27.545-26.065,39.525-39.342c11.688,14.058,21.828,28.119,30.121,41.89
	C440.225,345.861,446.006,378.526,432.5,396.311z"/>
<g>
	<path style="fill:#FF0435;" d="M100.776,36.083h4.715v4.715c0,4.328,3.509,7.837,7.837,7.837s7.837-3.509,7.837-7.837v-4.715h4.715
		c4.328,0,7.837-3.509,7.837-7.837s-3.509-7.837-7.837-7.837h-4.715v-4.715c0-4.328-3.509-7.837-7.837-7.837
		s-7.837,3.509-7.837,7.837v4.715h-4.715c-4.328,0-7.837,3.509-7.837,7.837S96.448,36.083,100.776,36.083z"/>
	<path style="fill:#FF0435;" d="M472.313,233.839h-4.715v-4.715c0-4.328-3.509-7.837-7.837-7.837s-7.837,3.509-7.837,7.837v4.715
		h-4.715c-4.328,0-7.837,3.509-7.837,7.837c0,4.328,3.509,7.837,7.837,7.837h4.715v4.715c0,4.328,3.509,7.837,7.837,7.837
		s7.837-3.509,7.837-7.837v-4.715h4.715c4.328,0,7.837-3.509,7.837-7.837C480.149,237.348,476.641,233.839,472.313,233.839z"/>
	<path style="fill:#FF0435;" d="M125.879,483.775h-4.715v-4.715c0-4.328-3.509-7.837-7.837-7.837s-7.837,3.509-7.837,7.837v4.715
		h-4.715c-4.328,0-7.837,3.509-7.837,7.837s3.509,7.837,7.837,7.837h4.715v4.715c0,4.328,3.509,7.837,7.837,7.837
		s7.837-3.509,7.837-7.837v-4.715h4.715c4.328,0,7.837-3.509,7.837-7.837S130.207,483.775,125.879,483.775z"/>
</g>
<g>
</g>
<g>
</g>
<g>
</g>
<g>
</g>
<g>
</g>
<g>
</g>
<g>
</g>
<g>
</g>
<g>
</g>
<g>
</g>
<g>
</g>
<g>
</g>
<g>
</g>
<g>
</g>
<g>
</g>
</svg>
