<?xml version="1.0" encoding="iso-8859-1"?>
<!-- Generator: Adobe Illustrator 19.0.0, SVG Export Plug-In . SVG Version: 6.00 Build 0)  -->
<svg version="1.1" id="Layer_1" xmlns="http://www.w3.org/2000/svg" xmlns:xlink="http://www.w3.org/1999/xlink" x="0px" y="0px"
	 viewBox="0 0 481.882 481.882" style="enable-background:new 0 0 481.882 481.882;" xml:space="preserve">
<g>
	<g>
		<path d="M109.3,165.033c-10.794,0-15.525,9.775-16.374,17.041h31.168C124.212,175.4,121.3,165.033,109.3,165.033z"/>
	</g>
</g>
<g>
	<g>
		<path d="M474.353,55.04c4.141,0,7.529-3.388,7.529-7.529V9.789c0-4.217-3.388-7.529-7.529-7.529H7.529
			C3.313,2.259,0,5.571,0,9.789V47.51c0,4.141,3.313,7.529,7.529,7.529h26.654v238.607H7.529c-4.216,0-7.529,3.313-7.529,7.529
			v37.647c0,4.216,3.313,7.529,7.529,7.529h225.882v44.423l-85.609,77.704l10.089,11.144l75.52-68.442v65.431h15.059v-65.431
			l75.445,68.442l10.165-11.144l-85.609-77.629v-44.498h225.882c4.141,0,7.529-3.313,7.529-7.529v-37.647
			c0-4.216-3.388-7.529-7.529-7.529h-26.729V55.04H474.353z M134.039,189.571H92.798c0.246,14.18,9.461,20.02,20.137,20.02
			c7.643,0,12.245-1.309,16.255-2.978l1.817,7.499c-3.762,1.667-10.191,3.578-19.525,3.578c-18.072,0-28.866-11.677-28.866-29.069
			c0-17.391,10.428-31.087,27.534-31.087c19.159,0,24.255,16.557,24.255,27.159C134.404,186.836,134.157,188.504,134.039,189.571z
			 M206.231,199.698h-62.584v-7.149h62.584V199.698z M206.231,176.351h-62.584v-7.148h62.584V176.351z M303.792,216.497h-10.428
			v-32.639c0-11.075-4.128-17.75-12.74-17.75c-6.063,0-10.795,4.405-12.612,9.535c-0.484,1.426-0.849,3.327-0.849,5.237v35.616
			h-10.429v-34.549c0-9.166-4.128-15.84-12.256-15.84c-6.667,0-11.516,5.239-13.213,10.485c-0.612,1.542-0.849,3.337-0.849,5.122
			v34.781h-10.428V174.45c0-5.954-0.13-10.843-0.495-15.605h9.342l0.484,9.291h0.366c3.278-5.48,8.73-10.601,18.438-10.601
			c7.998,0,14.063,4.763,16.61,11.552h0.248c1.817-3.22,4.118-5.713,6.548-7.507c3.515-2.619,7.396-4.046,12.975-4.046
			c7.763,0,19.287,5.006,19.287,25.015V216.497z M348.115,209.349c6.064,0,10.063-1.553,13.095-2.862l1.827,7.867
			c-2.795,1.425-8.977,3.336-16.869,3.336c-17.706,0-29.222-11.793-29.222-29.427c0-17.75,12.366-30.612,31.534-30.612
			c6.301,0,11.881,1.553,14.794,2.979l-2.429,8.099c-2.539-1.425-6.548-2.735-12.365-2.735c-13.46,0-20.738,9.769-20.738,21.794
			C327.742,201.134,336.471,209.349,348.115,209.349z M399.212,176.807h-29.331v-3.743l4.879-4.656
			c11.732-10.97,17.026-16.799,17.105-23.599c0-4.577-2.261-8.816-9.126-8.816c-4.167,0-7.623,2.086-9.747,3.822l-1.975-4.307
			c3.18-2.638,7.703-4.577,12.996-4.577c9.896,0,14.063,6.664,14.063,13.113c0,8.331-6.142,15.063-15.831,24.229l-3.674,3.326v0.145
			h20.64V176.807z"/>
	</g>
</g>
<g>
</g>
<g>
</g>
<g>
</g>
<g>
</g>
<g>
</g>
<g>
</g>
<g>
</g>
<g>
</g>
<g>
</g>
<g>
</g>
<g>
</g>
<g>
</g>
<g>
</g>
<g>
</g>
<g>
</g>
</svg>
