<?xml version="1.0" encoding="iso-8859-1"?>
<!-- Generator: Adobe Illustrator 16.0.0, SVG Export Plug-In . SVG Version: 6.00 Build 0)  -->
<!DOCTYPE svg PUBLIC "-//W3C//DTD SVG 1.1//EN" "http://www.w3.org/Graphics/SVG/1.1/DTD/svg11.dtd">
<svg version="1.1" id="Capa_1" xmlns="http://www.w3.org/2000/svg" xmlns:xlink="http://www.w3.org/1999/xlink" x="0px" y="0px"
	 width="30.875px" height="30.875px" viewBox="0 0 30.875 30.875" style="enable-background:new 0 0 30.875 30.875;"
	 xml:space="preserve">
<g>
	<g>
		<path d="M8.066,1.529v15.271h22.809V1.529H8.066z M29.891,15.818H9.05V2.512h20.841V15.818z"/>
		<rect x="25.309" y="13.716" width="3.955" height="1.418"/>
		<circle cx="3.068" cy="8.45" r="1.698"/>
		<polygon points="2.112,18.705 2.117,18.816 2.867,18.816 2.867,18.115 2.867,18.04 2.867,15.016 3.295,15.016 3.295,18.04 
			3.295,18.115 3.295,18.816 4.045,18.816 4.053,18.705 4.729,18.816 5.308,18.816 5.308,18.188 4.627,18.04 4.51,18.04 
			4.51,15.016 4.51,14.731 4.51,14.345 4.619,14.345 4.775,11.285 7.809,10.28 7.547,9.487 4.777,10.403 3.688,10.403 3.038,11.154 
			2.412,10.403 1.036,10.646 0.949,13.712 1.532,13.712 1.563,14.345 1.653,14.345 1.653,14.731 1.653,15.016 1.653,18.04 
			1.535,18.04 0.854,18.188 0.854,18.816 1.435,18.816 		"/>
		<circle cx="23.449" cy="21.523" r="1.03"/>
		<circle cx="28.175" cy="21.523" r="1.03"/>
		<circle cx="18.216" cy="21.523" r="1.029"/>
		<circle cx="12.633" cy="21.523" r="1.029"/>
		<circle cx="7.245" cy="21.425" r="1.029"/>
		<circle cx="1.882" cy="21.425" r="1.029"/>
		<circle cx="23.447" cy="24.742" r="1.482"/>
		<polygon points="24.02,26.447 23.475,27.104 22.908,26.447 21.602,26.696 21.602,29.303 25.296,29.303 25.238,26.717 		"/>
		<circle cx="18.076" cy="24.742" r="1.482"/>
		<polygon points="18.648,26.447 18.104,27.104 17.538,26.447 16.229,26.717 16.229,29.303 19.926,29.303 19.852,26.717 		"/>
		<circle cx="20.688" cy="22.676" r="1.084"/>
		<path d="M22.038,26.012l-0.001-0.066c-0.191-0.365-0.326-0.761-0.326-1.203c0-0.29,0.077-0.561,0.167-0.82h-0.106h-0.267h-0.399
			l-0.399,0.479l-0.412-0.479h-0.425h-0.237c0.11,0.252,0.173,0.529,0.173,0.82c0,0.477-0.168,0.913-0.441,1.27H22.038
			L22.038,26.012z"/>
		<circle cx="12.632" cy="24.742" r="1.48"/>
		<polygon points="13.204,26.447 12.659,27.104 12.094,26.447 10.784,26.717 10.784,29.303 14.481,29.303 14.406,26.717 		"/>
		<circle cx="15.242" cy="22.676" r="1.084"/>
		<path d="M16.594,26.012v-0.066c-0.193-0.365-0.328-0.761-0.328-1.203c0-0.29,0.078-0.561,0.168-0.82h-0.106h-0.265H15.66
			l-0.399,0.479l-0.413-0.479h-0.424h-0.237c0.109,0.252,0.172,0.529,0.172,0.82c0,0.477-0.166,0.913-0.442,1.27H16.594
			L16.594,26.012z"/>
		<circle cx="28.882" cy="24.675" r="1.481"/>
		<polygon points="29.454,26.379 28.908,27.034 28.344,26.379 27.035,26.676 27.035,29.235 30.732,29.235 30.657,26.655 		"/>
		<circle cx="26.048" cy="22.607" r="1.084"/>
		<path d="M27.4,25.945l-0.002-0.066c-0.192-0.365-0.328-0.762-0.328-1.203c0-0.291,0.078-0.561,0.166-0.821h-0.104h-0.266h-0.4
			l-0.399,0.479l-0.412-0.479h-0.426h-0.235c0.108,0.253,0.172,0.53,0.172,0.821c0,0.477-0.166,0.914-0.44,1.271L27.4,25.945
			L27.4,25.945z"/>
		<circle cx="7.329" cy="24.784" r="1.481"/>
		<polygon points="7.902,26.488 7.354,27.145 6.79,26.488 5.481,26.717 5.481,29.346 9.178,29.346 9.102,26.717 		"/>
		<circle cx="9.938" cy="22.717" r="1.084"/>
		<path d="M11.29,26.053l-0.001-0.066c-0.192-0.365-0.327-0.762-0.327-1.201c0-0.292,0.079-0.561,0.167-0.822h-0.105h-0.266h-0.4
			l-0.399,0.48l-0.414-0.48H9.12H8.883c0.108,0.254,0.172,0.53,0.172,0.821c0,0.476-0.167,0.913-0.442,1.269H11.29z"/>
		<circle cx="1.884" cy="24.784" r="1.481"/>
		<polygon points="2.457,26.488 1.91,27.145 1.344,26.488 0,26.717 0.036,29.346 3.733,29.346 3.656,26.717 		"/>
		<circle cx="4.495" cy="22.717" r="1.084"/>
		<path d="M5.847,26.053l-0.002-0.066c-0.192-0.365-0.327-0.762-0.327-1.201c0-0.292,0.078-0.561,0.168-0.822H5.578H5.313h-0.4
			l-0.399,0.48L4.1,23.963H3.676H3.439c0.108,0.254,0.172,0.531,0.172,0.822c0,0.477-0.169,0.913-0.443,1.27h2.679V26.053z"/>
		<polygon points="15.109,10.064 13.072,10.064 13.072,9.589 14.87,9.589 14.87,8.682 13.072,8.682 13.072,8.207 15.051,8.207 
			15.051,7.231 11.898,7.231 11.898,11.042 15.109,11.042 		"/>
		<rect x="15.605" y="9.925" width="2.694" height="0.816"/>
		<rect x="15.605" y="8.639" width="2.694" height="0.816"/>
		<path d="M19.891,9.542c0-0.146,0.024-0.266,0.076-0.358c0.053-0.092,0.145-0.138,0.281-0.138c0.077,0,0.139,0.013,0.186,0.04
			c0.047,0.026,0.084,0.063,0.106,0.109c0.024,0.046,0.04,0.099,0.046,0.16c0.006,0.061,0.008,0.123,0.008,0.187v1.5h1.057v-1.5
			c0-0.146,0.024-0.266,0.076-0.358c0.053-0.092,0.146-0.138,0.279-0.138c0.08,0,0.143,0.013,0.188,0.04
			c0.048,0.026,0.082,0.063,0.107,0.109c0.024,0.046,0.04,0.099,0.045,0.16c0.006,0.061,0.008,0.123,0.008,0.187v1.5h1.057v-1.9
			c0-0.11-0.016-0.222-0.047-0.333c-0.031-0.113-0.086-0.214-0.159-0.304c-0.076-0.091-0.175-0.164-0.294-0.219
			c-0.122-0.056-0.271-0.083-0.448-0.083c-0.172,0-0.315,0.021-0.433,0.063c-0.117,0.043-0.213,0.09-0.282,0.142
			c-0.072,0.052-0.125,0.101-0.16,0.146c-0.035,0.046-0.058,0.073-0.069,0.08c-0.062-0.139-0.166-0.245-0.31-0.32
			c-0.144-0.074-0.288-0.112-0.438-0.112c-0.19,0-0.363,0.033-0.518,0.099c-0.152,0.067-0.283,0.18-0.389,0.339h-0.012V8.272h-1.02
			v2.769h1.059V9.542L19.891,9.542z"/>
		<path d="M24.301,10.733c0.139,0.123,0.305,0.216,0.494,0.28s0.396,0.097,0.616,0.097c0.155,0,0.308-0.018,0.455-0.054
			c0.149-0.035,0.284-0.088,0.411-0.16c0.127-0.071,0.238-0.162,0.334-0.272c0.096-0.11,0.171-0.24,0.225-0.389h-0.982
			c-0.043,0.067-0.106,0.117-0.189,0.149c-0.084,0.032-0.169,0.048-0.255,0.048c-0.168,0-0.298-0.049-0.388-0.149
			c-0.088-0.099-0.141-0.23-0.154-0.39h2.027c0-0.27-0.029-0.509-0.092-0.72c-0.061-0.209-0.154-0.386-0.281-0.531
			c-0.129-0.144-0.293-0.253-0.492-0.328c-0.198-0.074-0.436-0.112-0.709-0.112c-0.221,0-0.42,0.038-0.6,0.115
			c-0.18,0.076-0.334,0.181-0.462,0.314c-0.129,0.133-0.227,0.288-0.296,0.464c-0.07,0.176-0.104,0.365-0.104,0.568
			c0,0.231,0.039,0.437,0.117,0.616S24.162,10.611,24.301,10.733z M25.042,9c0.089-0.081,0.214-0.12,0.374-0.12
			c0.135,0,0.246,0.045,0.334,0.136c0.087,0.091,0.13,0.2,0.13,0.328h-1.008C24.896,9.195,24.954,9.079,25.042,9z"/>
		<path d="M28.561,8.334h-0.85V8.331c0.089-0.054,0.182-0.104,0.279-0.156c0.097-0.051,0.185-0.107,0.265-0.168
			c0.081-0.062,0.147-0.134,0.2-0.217c0.052-0.083,0.078-0.184,0.078-0.304c0-0.099-0.02-0.186-0.057-0.26
			c-0.035-0.074-0.09-0.136-0.156-0.184c-0.066-0.049-0.146-0.085-0.241-0.109s-0.198-0.036-0.312-0.036
			c-0.127,0-0.24,0.018-0.341,0.054c-0.102,0.036-0.187,0.088-0.257,0.158c-0.07,0.069-0.122,0.154-0.156,0.254
			c-0.035,0.101-0.048,0.215-0.039,0.344h0.504c-0.002-0.115,0.017-0.208,0.06-0.278c0.041-0.071,0.116-0.107,0.226-0.107
			c0.062,0,0.115,0.017,0.159,0.05c0.044,0.033,0.067,0.092,0.067,0.178c0,0.034-0.012,0.065-0.027,0.092
			c-0.018,0.026-0.038,0.05-0.062,0.072c-0.026,0.022-0.057,0.042-0.086,0.06c-0.028,0.018-0.056,0.034-0.078,0.048
			c-0.06,0.036-0.119,0.073-0.184,0.109c-0.062,0.037-0.123,0.075-0.182,0.115c-0.059,0.041-0.113,0.084-0.164,0.13
			c-0.051,0.049-0.096,0.099-0.137,0.153c-0.047,0.063-0.082,0.132-0.105,0.21c-0.023,0.077-0.033,0.161-0.027,0.252h1.623V8.334z"
			/>
	</g>
</g>
<g>
</g>
<g>
</g>
<g>
</g>
<g>
</g>
<g>
</g>
<g>
</g>
<g>
</g>
<g>
</g>
<g>
</g>
<g>
</g>
<g>
</g>
<g>
</g>
<g>
</g>
<g>
</g>
<g>
</g>
</svg>
