<?xml version="1.0" encoding="iso-8859-1"?>
<!-- Generator: Adobe Illustrator 19.0.0, SVG Export Plug-In . SVG Version: 6.00 Build 0)  -->
<svg version="1.1" id="Layer_1" xmlns="http://www.w3.org/2000/svg" xmlns:xlink="http://www.w3.org/1999/xlink" x="0px" y="0px"
	 viewBox="0 0 512 512" style="enable-background:new 0 0 512 512;" xml:space="preserve">
<path style="fill:#88888F;" d="M424.821,256c6.645-6.462,12.847-12.921,18.534-19.335c48.598-54.806,45.503-89.342,34.346-108.665
	c-11.155-19.323-39.514-39.272-111.279-24.587c-8.398,1.719-17.101,3.874-26.02,6.398c-2.275-8.986-4.759-17.6-7.471-25.733
	C309.77,14.586,278.311,0,256,0c-22.311,0-53.769,14.586-76.932,84.077c-2.71,8.133-5.196,16.747-7.471,25.733
	c-8.92-2.523-17.621-4.679-26.02-6.398C73.814,88.73,45.454,108.679,34.298,128c-11.157,19.323-14.252,53.859,34.346,108.665
	c5.688,6.415,11.889,12.873,18.534,19.335c-6.645,6.462-12.847,12.921-18.534,19.335C20.046,330.141,23.141,364.677,34.298,384
	c8.459,14.652,26.804,29.663,66.473,29.663c12.643,0,27.46-1.527,44.806-5.075c8.398-1.719,17.101-3.874,26.02-6.398
	c2.275,8.986,4.758,17.6,7.471,25.733C202.231,497.414,233.69,512,256,512c22.311,0,53.769-14.586,76.932-84.077
	c2.71-8.133,5.196-16.747,7.471-25.733c8.92,2.523,17.621,4.679,26.02,6.398c17.349,3.55,32.161,5.075,44.806,5.075
	c39.663,0,58.016-15.012,66.473-29.663c11.155-19.323,14.252-53.859-34.346-108.665C437.669,268.921,431.467,262.462,424.821,256z
	 M375.756,149.014c14.608-2.99,26.334-4.104,35.489-4.104c16.4,0,24.542,3.578,26.149,6.363c2.506,4.34-1.254,23.374-28.863,54.509
	c-5.691,6.419-11.978,12.901-18.784,19.4c-11.044-8.844-22.809-17.58-35.168-26.11c-1.207-14.961-2.895-29.502-5.032-43.48
	C358.582,152.947,367.348,150.734,375.756,149.014z M283.152,303.028c-9.055,5.227-18.122,10.175-27.152,14.857
	c-9.03-4.681-18.097-9.629-27.152-14.857c-9.052-5.225-17.875-10.597-26.442-16.074c-0.461-10.166-0.709-20.496-0.709-30.954
	s0.248-20.789,0.709-30.954c8.566-5.477,17.391-10.848,26.442-16.074c9.055-5.227,18.122-10.175,27.152-14.857
	c9.03,4.681,18.097,9.629,27.152,14.857c9.052,5.225,17.875,10.597,26.442,16.074c0.461,10.166,0.709,20.496,0.709,30.954
	s-0.248,20.789-0.709,30.954C301.027,292.431,292.203,297.802,283.152,303.028z M223.225,98.796
	c13.16-39.478,27.764-52.25,32.776-52.25c5.011,0,19.616,12.772,32.776,52.25c2.714,8.141,5.181,16.839,7.407,25.986
	c-13.177,5.142-26.618,10.952-40.183,17.389c-13.565-6.437-27.004-12.248-40.183-17.389
	C218.044,115.634,220.511,106.937,223.225,98.796z M103.469,205.782c-27.609-31.136-31.367-50.17-28.863-54.509
	c1.609-2.785,9.748-6.363,26.151-6.363c9.154,0,20.883,1.114,35.489,4.104c8.406,1.721,17.172,3.933,26.208,6.578
	c-2.136,13.979-3.823,28.518-5.032,43.48c-12.359,8.53-24.124,17.267-35.168,26.11C115.449,218.683,109.162,212.201,103.469,205.782
	z M136.245,362.986c-40.771,8.344-59.131,2.081-61.639-2.259c-2.506-4.34,1.254-23.374,28.863-54.509
	c5.691-6.419,11.978-12.901,18.784-19.4c11.044,8.844,22.809,17.58,35.168,26.11c1.207,14.961,2.895,29.502,5.032,43.481
	C153.419,359.053,144.653,361.266,136.245,362.986z M288.776,413.204c-13.16,39.478-27.764,52.25-32.776,52.25
	c-5.011,0-19.616-12.772-32.776-52.25c-2.714-8.141-5.181-16.839-7.407-25.986c13.177-5.142,26.618-10.952,40.183-17.389
	c13.565,6.437,27.004,12.248,40.183,17.389C293.957,396.366,291.49,405.063,288.776,413.204z M437.394,360.727
	c-2.506,4.34-20.866,10.603-61.639,2.259c-8.406-1.721-17.172-3.933-26.208-6.578c2.136-13.979,3.823-28.52,5.032-43.481
	c12.359-8.53,24.124-17.267,35.168-26.11c6.806,6.499,13.093,12.983,18.784,19.4C436.141,337.354,439.898,356.388,437.394,360.727z"
	/>
<path style="fill:#56545A;" d="M424.821,256c6.645-6.462,12.847-12.921,18.534-19.335c48.598-54.806,45.503-89.342,34.346-108.665
	c-11.155-19.323-39.514-39.272-111.279-24.587c-8.398,1.719-17.101,3.874-26.02,6.398c-2.275-8.986-4.759-17.6-7.471-25.733
	C309.77,14.586,278.311,0,256,0v46.545c5.011,0,19.616,12.772,32.776,52.25c2.714,8.141,5.181,16.839,7.407,25.986
	c-13.177,5.142-26.618,10.952-40.183,17.389v51.945c9.03,4.681,18.097,9.629,27.152,14.857c9.052,5.225,17.875,10.597,26.442,16.074
	c0.461,10.164,0.709,20.494,0.709,30.953s-0.248,20.789-0.709,30.954c-8.566,5.477-17.391,10.848-26.442,16.074
	c-9.055,5.227-18.122,10.175-27.152,14.857v51.945c13.565,6.437,27.004,12.248,40.183,17.389
	c-2.226,9.148-4.693,17.846-7.407,25.986c-13.16,39.477-27.764,52.249-32.776,52.249V512c22.311,0,53.769-14.586,76.932-84.077
	c2.71-8.133,5.196-16.747,7.471-25.733c8.92,2.523,17.621,4.679,26.02,6.398c17.349,3.55,32.161,5.075,44.806,5.075
	c39.663,0,58.016-15.012,66.473-29.663c11.155-19.323,14.252-53.859-34.346-108.665C437.669,268.921,431.467,262.462,424.821,256z
	 M375.756,149.014c14.608-2.99,26.334-4.104,35.489-4.104c16.4,0,24.542,3.578,26.149,6.363c2.506,4.34-1.254,23.374-28.863,54.509
	c-5.691,6.419-11.978,12.901-18.784,19.4c-11.044-8.844-22.809-17.58-35.168-26.11c-1.207-14.961-2.895-29.502-5.032-43.48
	C358.582,152.947,367.348,150.734,375.756,149.014z M437.394,360.727c-2.506,4.34-20.866,10.603-61.639,2.259
	c-8.406-1.721-17.172-3.933-26.208-6.578c2.136-13.979,3.823-28.52,5.032-43.481c12.359-8.53,24.124-17.267,35.168-26.11
	c6.806,6.499,13.093,12.983,18.784,19.4C436.141,337.354,439.898,356.388,437.394,360.727z"/>
<g>
</g>
<g>
</g>
<g>
</g>
<g>
</g>
<g>
</g>
<g>
</g>
<g>
</g>
<g>
</g>
<g>
</g>
<g>
</g>
<g>
</g>
<g>
</g>
<g>
</g>
<g>
</g>
<g>
</g>
</svg>
